<?xml version="1.0" encoding="utf-8"?>
<!-- Generator: Adobe Illustrator 26.3.1, SVG Export Plug-In . SVG Version: 6.00 Build 0)  -->
<svg version="1.1" id="Layer_1" xmlns="http://www.w3.org/2000/svg" xmlns:xlink="http://www.w3.org/1999/xlink" x="0px" y="0px"
	 viewBox="0 0 81.7 81.3" style="enable-background:new 0 0 81.7 81.3;" xml:space="preserve">
<style type="text/css">
	.st0{clip-path:url(#SVGID_00000084487779811789428710000002261481652952536985_);}
</style>
<g>
	<defs>
		<rect id="SVGID_1_" x="-9.2" y="-9.3" width="100" height="100"/>
	</defs>
	<clipPath id="SVGID_00000001636230727662995870000001301650042399030192_">
		<use xlink:href="#SVGID_1_"  style="overflow:visible;"/>
	</clipPath>
	<g style="clip-path:url(#SVGID_00000001636230727662995870000001301650042399030192_);">
		<path d="M40.8,81.7C18.2,81.7,0,63.4,0,40.8S18.4,0,40.9,0c22.6,0,40.8,18.4,40.8,40.9c0,16.4-9.9,31.2-25,37.6
			C51.7,80.7,46.3,81.8,40.8,81.7z M40.8,65.7c-1.7,0-3,1.3-3,3s1.3,3,3,3s3-1.3,3-3S42.5,65.7,40.8,65.7z M24.5,33.9
			c-1.1,0-2,0.9-2,2c0,0.9,0.6,1.7,1.5,1.9l12.6,3.4c0.5,2.2,2.6,3.5,4.7,3.1c1.9-0.4,3.2-2.1,3.2-4L65,28.5c1-0.5,1.3-1.8,0.8-2.7
			c-0.5-1-1.8-1.3-2.7-0.8c0,0,0,0,0,0L42.4,36.9c-1.5-0.8-3.3-0.6-4.6,0.5L25,34C24.9,34,24.7,33.9,24.5,33.9L24.5,33.9z
			 M68.8,37.7c-1.7,0-3,1.3-3,3s1.3,3,3,3s3-1.3,3-3S70.5,37.7,68.8,37.7z M12.8,37.7c-1.7,0-3,1.3-3,3s1.3,3,3,3s3-1.3,3-3
			S14.5,37.7,12.8,37.7z M40.8,9.7c-1.7,0-3,1.3-3,3s1.3,3,3,3s3-1.3,3-3S42.5,9.7,40.8,9.7z"/>
	</g>
</g>
</svg>
