<svg xmlns="http://www.w3.org/2000/svg" xmlns:xlink="http://www.w3.org/1999/xlink" version="1.1" x="0px" y="0px" viewBox="0 0 100 125" enable-background="new 0 0 100 100" xml:space="preserve"><path fill="#000000" d="M82.793,29.169c-0.258-0.756-0.941-1.286-1.737-1.348l-15.916-1.24l2.989-18.513  c0.138-0.853-0.288-1.698-1.056-2.095c-0.769-0.396-1.704-0.256-2.32,0.35L43.44,27.254l-2.672-8.163  c-0.208-0.637-0.721-1.126-1.367-1.305c-0.645-0.178-1.336-0.023-1.843,0.415L21.967,31.699L21.676,30.9  c0.06-0.067,0.129-0.122,0.185-0.193c0.763-0.971,1.102-2.181,0.955-3.407c-0.301-2.503-2.59-4.348-5.142-4.038  c-1.226,0.147-2.321,0.764-3.084,1.735c-0.762,0.971-1.101,2.181-0.954,3.407c0.27,2.24,2.12,3.933,4.348,4.049l21.521,59.017  c0.296,0.812,1.062,1.315,1.879,1.315c0.228,0,0.459-0.04,0.685-0.122c1.038-0.378,1.572-1.526,1.194-2.564l-9.228-25.305  l10.31-10.387l1.848,5.732c0.007,0.021,0.021,0.039,0.028,0.061c0.041,0.113,0.091,0.22,0.15,0.322  c0.018,0.03,0.031,0.062,0.05,0.092c0.082,0.125,0.176,0.241,0.284,0.346c0.023,0.022,0.051,0.04,0.075,0.062  c0.089,0.078,0.183,0.148,0.284,0.21c0.041,0.025,0.082,0.046,0.125,0.067c0.099,0.052,0.203,0.093,0.311,0.127  c0.028,0.009,0.051,0.024,0.08,0.032c0.014,0.004,0.029,0.002,0.043,0.006c0.153,0.037,0.31,0.062,0.474,0.062  c0.001,0,0.003,0,0.005,0c0.013,0,0.026-0.004,0.039-0.004c0.115-0.003,0.229-0.014,0.341-0.035  c0.053-0.011,0.102-0.029,0.153-0.043c0.07-0.021,0.141-0.038,0.208-0.065c0.055-0.022,0.105-0.052,0.158-0.078  c0.06-0.03,0.121-0.06,0.178-0.097c0.05-0.032,0.095-0.069,0.142-0.106c0.039-0.03,0.082-0.056,0.119-0.089l32.803-29.709  C82.835,30.762,83.051,29.925,82.793,29.169z M23.434,35.721l14.469-12.526l7.884,24.083L32.521,60.641L23.434,35.721z   M50.086,55.025l-0.018-7.213c0-0.015-0.004-0.028-0.004-0.043c-0.001-0.038-0.009-0.074-0.012-0.111  c-0.011-0.135-0.034-0.265-0.07-0.391c-0.007-0.024-0.005-0.049-0.013-0.072l-5.141-15.703c0.007-0.007,0.017-0.012,0.024-0.019  l18.357-18.028l-2.364,14.642c-0.089,0.552,0.057,1.116,0.402,1.555s0.859,0.714,1.417,0.758l13.453,1.048L50.086,55.025z"/><text x="0" y="115" fill="#000000" font-size="5px" font-weight="bold" font-family="'Helvetica Neue', Helvetica, Arial-Unicode, Arial, Sans-serif">Created by Démarque Toi</text><text x="0" y="120" fill="#000000" font-size="5px" font-weight="bold" font-family="'Helvetica Neue', Helvetica, Arial-Unicode, Arial, Sans-serif">from the Noun Project</text></svg>