<svg id="logo" xmlns="http://www.w3.org/2000/svg" width="204.919" height="89.106" viewBox="0 0 204.919 89.106">
  <text id="Mister_Guide" data-name="Mister
Guide" transform="translate(66.919 44.106)" fill="#5041ff" font-size="40" font-family="ArchivoBlack-Regular, Archivo Black"><tspan x="0" y="0">Mister</tspan><tspan x="0" y="37">Guide</tspan></text>
  <g id="Group_1" data-name="Group 1">
    <path id="Path_1" data-name="Path 1" d="M983.09,430.069c-2.964-4.308-5.97-8.395-8.665-12.676a11.493,11.493,0,0,1,1.828-13.858,10.272,10.272,0,0,1,17.122,8.985,16.11,16.11,0,0,1-2.155,5.969c-2.385,3.86-5.117,7.506-7.71,11.237A2.788,2.788,0,0,1,983.09,430.069Zm3.533-19.1a3.347,3.347,0,0,0-3.3-3.356,3.438,3.438,0,0,0-3.383,3.479,3.361,3.361,0,0,0,3.419,3.232A3.273,3.273,0,0,0,986.623,410.966Z" transform="translate(-943.101 -400.832)" fill="#5041ff"/>
    <path id="Path_2" data-name="Path 2" d="M937.975,500.387H945.2c-.313,6.827-3.126,12.147-8.917,15.561-6.5,3.829-13.163,3.664-19.466-.48-5.3-3.485-7.938-8.586-8.1-15.09h7.255a11.257,11.257,0,0,0,4.627,8.792,10.708,10.708,0,0,0,7.076,2C933.159,510.852,936.73,507.149,937.975,500.387Z" transform="translate(-901.397 -465.532)" fill="#5041ff"/>
    <path id="Path_3" data-name="Path 3" d="M893.991,434.6l-6.188-5.752,5.236-5.334,5.522,5.968,5.551-6.188,5.464,5.561-5.973,5.636,6.3,5.859-5.131,5.054-5.517-5.827-5.94,6.233-5.266-5.527Z" transform="translate(-887.803 -415.433)" fill="#5041ff"/>
  </g>
</svg>
