<svg id="Group_14" data-name="Group 14" xmlns="http://www.w3.org/2000/svg" width="20.628" height="20.628" viewBox="0 0 20.628 20.628">
  <path id="Path_8" data-name="Path 8" d="M16.623,965.362a1.3,1.3,0,0,0-1.115.557l-1.951,2.23A2.984,2.984,0,0,0,13,970.1c0,2.532,1.9,6.643,5.575,10.314s7.782,5.575,10.314,5.575a2.984,2.984,0,0,0,1.951-.557l2.23-1.951a1.3,1.3,0,0,0,.557-1.115,1.607,1.607,0,0,0-.557-1.115L30,978.184a1.482,1.482,0,0,0-1.115-.557,1.517,1.517,0,0,0-1.115.557L26.658,979.3a1.059,1.059,0,0,1-1.394.279l-5.854-5.854a1.059,1.059,0,0,1,.279-1.394l1.115-1.115a1.517,1.517,0,0,0,.558-1.115,1.482,1.482,0,0,0-.558-1.115l-3.066-3.066A1.607,1.607,0,0,0,16.623,965.362Z" transform="translate(-13 -965.362)" fill="#fff"/>
</svg>
